# xmcd
#
# Track frame offsets:
#	150
#	23186
#	44599
#	70209
#	94741
#	115781
#	139637
#	160362
#	185890
#	207120
#
# Disc length: 3096 seconds
#
# Revision: 0
# Processed by: cddbd v1.5.1PL2 Copyright (c) Steve Scherf et al.
# Submitted via: EasyCDDAExtractor 8.2.3.1
#
DISCID=8e0c160a
DTITLE=The PHOENIX - Some Where In Between
DYEAR=2005
DGENRE=Blues/Rock
TTITLE0=When I Couldn't See
TTITLE1=Soul Kitchen
TTITLE2=I'm Out
TTITLE3=Lady Caine
TTITLE4=Say Goodbye
TTITLE5=Bitch
TTITLE6=Gypsy Woman
TTITLE7=Let It Go
TTITLE8=Raging Storm
TTITLE9=Wanna Be the Night
EXTD=
EXTT0=
EXTT1=
EXTT2=
EXTT3=
EXTT4=
EXTT5=
EXTT6=
EXTT7=
EXTT8=
EXTT9=
PLAYORDER=
